<svg id="Layer_1" data-name="Layer 1" xmlns="http://www.w3.org/2000/svg" viewBox="0 0 1060.72846 172.29759"><defs><style>.cls-1{fill:#1a1a1a;}</style></defs><g id="Group_1" data-name="Group 1"><g id="Path_1" data-name="Path 1"><path class="cls-1" d="M722.10828,89.17448a5.70719,5.70719,0,0,1-.27066-1.49274,16.98935,16.98935,0,0,0-6.15009-11.28516A72.09107,72.09107,0,0,0,704.084,67.7745c-8.49071-5.17485-17.085-10.21037-25.84238-14.93939a15.2339,15.2339,0,0,1-8.96046-16.5436,9.29092,9.29092,0,0,1,6.98605-7.189,37.076,37.076,0,0,1,11.90216.39809,22.19615,22.19615,0,0,1,11.58363,7.0259,120.13349,120.13349,0,0,1,8.31954,11.24932c1.51661,2.269,2.50382,4.88027,3.82145,7.2965a15.3104,15.3104,0,0,0,1.65595,2.10973c.53736-.84786,1.11063-1.68383,1.61616-2.56352a1.83145,1.83145,0,0,0,.05971-.83195q.179-11.14583.33437-22.29165a5.75567,5.75567,0,0,0-.12737-2.16945,7.68287,7.68287,0,0,1-.05175-5.42164c.33438-1.0907.71649-2.57944-.95932-3.16065-2.01025-.68867-4.33889-.07168-4.86034,1.3534a2.30085,2.30085,0,0,1-2.60338,1.636,8.75748,8.75748,0,0,1-2.16549-.29854c-2.56353-.83195-5.0753-1.8112-7.64685-2.59535a55.48642,55.48642,0,0,0-24.83525-2.19332,21.17683,21.17683,0,0,0-12.7779,6.13017c-1.99032,2.1177-3.81343,4.43444-5.64455,6.70738a16.59982,16.59982,0,0,0-2.52374,3.55869,128.82459,128.82459,0,0,0-4.96385,12.51514,14.65667,14.65667,0,0,0,.59708,11.516c1.09866,2.08586,2.20528,4.17969,3.43927,6.19388a49.9016,49.9016,0,0,0,8.92463,11.14582,61.119,61.119,0,0,0,16.63907,9.1555c5.64856,2.55958,11.20948,5.17486,16.58739,8.24a13.01291,13.01291,0,0,1,5.38981,6.47256,11.09017,11.09017,0,0,1-7.93342,16.1893,62.84191,62.84191,0,0,1-17.288,1.11858,10.74769,10.74769,0,0,1-8.20413-4.14385,51.11172,51.11172,0,0,1-8.30763-16.261,31.84491,31.84491,0,0,0-3.22431-6.46454,2.3883,2.3883,0,0,0-1.851-.76824c-.29058,0-.72845.89962-.832,1.445a17.04946,17.04946,0,0,0-.27868,3.18453c-.03183,5.83564.11942,11.67523-.05175,17.51482-.16722,5.33806-.68071,10.66015-.97524,15.99026-.03183.54532.13533,1.36931.50159,1.59223s1.10261-.11942,1.66-.28262c.24284-.07562.43387-.34233.66875-.50159a17.53861,17.53861,0,0,1,11.63144-4.23144,79.123,79.123,0,0,1,12.61864,1.847,83.08969,83.08969,0,0,0,11.46027,1.79529,65.78893,65.78893,0,0,0,8.55837-.39809.74789.74789,0,0,0,.02387.23087,18.89164,18.89164,0,0,0,3.98065-.4697c2.878-.94341,5.71222-2.058,8.50267-3.2681a20.3583,20.3583,0,0,0,4.99172-2.78645,25.5915,25.5915,0,0,0,7.77421-10.6483,31.55454,31.55454,0,0,0,.70459-21.806M708.63776,36.64988v2.9457c-1.54851-1.15436-1.54851-1.69573,0-2.9457m-3.64628-8.42705c.1473.8797.29854,1.76741.44583,2.64316l-.71254.08358c-.13138-.87575-.2627-1.7515-.39809-2.61929l.66079-.10745M654.489,62.962c.207-.09949.39809-.203.613-.29459l1.10262,2.28491c-1.19421-.35429-1.87091-.97129-1.71566-1.99032m-1.62413,55.29118c-.08758-.63692-.17116-1.27778-.29458-2.16944,1.05887.24283,1.73952.39809,2.41623.54532.05175.18708.09554.37416.14729.55729l-2.269,1.06683m37.1912-54.284,3.11686,2.01024-.29459.50955c-1.07479-.64087-2.57943-.44984-3.27606-1.80719.15124-.23883.29854-.48167.45379-.71254M665.30431,30.18139l.8837.13533c-.1592.84392-.31846,1.69178-.48167,2.5317-.17912-.02788-.35028-.05576-.52941-.09154.04775-.85983.08358-1.71566.12738-2.57549m-7.07759,4.33494-.39809-.11546a14.42434,14.42434,0,0,1-.43387-2.32069c0-.39809.39809-.79612.59313-1.19421.22291.35825.65678.71254.64086,1.06283a18.40027,18.40027,0,0,1-.39809,2.56352m3.72986,39.40838s-1.87486-1.0429-2.21324-2.464S676.99144,55.136,676.99144,55.136Zm58.17717,26.98083-.52941,2.71082-17.81736-1.19421ZM676.08387,79.03184c.94341-.199,1.89478-.39809,2.96556-.609-.43787,2.10974-1.32953,2.38841-2.96556.609m15.88675-6.22972c-1.51267,2.03411-2.83024,3.79357-4.13189,5.54506.19109-2.94965,2.03412-5.46142,4.13189-5.54506m.629,13.93226-.629-.33036q2.43609-3.98068,4.86435-7.9613l.64087.39809q-2.43619,3.98059-4.87632,7.91356m6.36906,5.83163c-.27467.07167-.69663-.39809-1.05888-.64087.04379-.14729.09154-.28262.13138-.42991.54532-.07963,1.0867-.1592,1.62807-.24679.07562.12737.1592.24284.23488.36225-.3105.34233-.56524.86378-.93545.95538"/></g><g id="Path_2" data-name="Path 2"><path class="cls-1" d="M840.31756,44.241a68.1287,68.1287,0,0,0-13.30725-13.05651c-1.99032-1.71165-4.59764-2.679-6.55213-4.37874a25.87515,25.87515,0,0,0-7.23284-4.47422,72.04828,72.04828,0,0,0-16.9257-4.91209,16.8059,16.8059,0,0,1-4.10007-.89962,13.367,13.367,0,0,0-9.669-.24678,52.75557,52.75557,0,0,0-22.013,10.13869,106.59089,106.59089,0,0,0-9.79242,8.50662,46.81656,46.81656,0,0,0-9.95162,17.41934,45.87634,45.87634,0,0,0-1.83112,6.46855c-.629,4.725-.76429,9.51775-1.433,14.23481a42.65181,42.65181,0,0,0,1.38924,14.01189c.19109,1.00713-.07562,2.11375.195,3.077.50955,1.77537,1.25786,3.4711,1.92661,5.17486a47.89216,47.89216,0,0,0,3.39153,8.431,69.59316,69.59316,0,0,0,17.63029,17.49095c2.886,2.20127,6.11425,3.94882,9.07192,6.07447a13.172,13.172,0,0,0,7.5632,2.50382c3.52686.11942,7.05767.46575,10.58854.55729,2.1774.05175,4.37873-.16722,6.55614-.27467a16.31608,16.31608,0,0,1,2.671-.13933,18.34691,18.34691,0,0,0,11.305-1.81121c5.6366-3.11285,11.122-6.50438,16.53558-9.97949a39.68319,39.68319,0,0,0,12.1131-11.54385,24.49074,24.49074,0,0,0,2.0699-3.45519,112.353,112.353,0,0,0,4.49815-11.20948,86.11235,86.11235,0,0,0,2.14156-10.74773c.32241-1.92661.42591-3.89707.68065-5.8436.31451-2.56353.68867-5.10719.86773-6.43673a43.30576,43.30576,0,0,0-8.35938-24.68M825.51733,46.1239c-.02394.07167-.04374.15525-.06767.23087a34.39751,34.39751,0,0,1-6.26957-.59707c-.90356-.23488-1.48083-1.73157-2.464-2.98949l8.80121,3.35569m-10.34971-7.47568c1.69974.21891,3.39147.43787,5.08733.6648a3.47706,3.47706,0,0,1-.05175.48167c-1.38123.13933-3.18447-.91159-3.92088,1.61616-.56525-.92349-.96334-1.59223-1.36537-2.253.08357-.16321.17116-.33437.25079-.50955m-47.84338-7.91355c.05175.16722.09949.33036.14729.48167L761.636,32.33893c-.02788-.17117-.07562-.35029-.11146-.53342,1.93857-.35028,3.8732-.72049,5.79981-1.07078m-5.11114,21.189c2.58345-.79612,3.491.09949,2.90586,2.69089-.13138.57721-.29058,1.1345-.36621,1.42508-1.24194-.74838-2.253-1.31362-3.22036-1.95054-.28262-.18708-.66875-.70057-.609-.79612.3543-.51349.76429-1.21406,1.28975-1.37332m2.058,10.05511c-.93546.53342-1.445,1.05487-1.94258,1.039-.39809-.01992-.75634-.69663-1.13049-1.07874a4.93583,4.93583,0,0,1,1.46091-.97524c.32241-.06766.79612.46575,1.61216,1.01509m-21.74232,20.576c.64087.86779,1.12654,1.53253,1.59224,2.20128-1.445.56129-1.74354.195-1.59224-2.20128m16.48389,6.86264c.22692-1.429.55728-1.56442,2.0739-.66875l-2.0739.66875m3.905-15.843c-.33036.61305-1.77536.63291-2.82628.95137a8.45178,8.45178,0,0,1,.08357-1.23005l-17.39146.04774a3.75809,3.75809,0,0,1,.07963,1.06684,4.929,4.929,0,0,1-.49758,1.13845c-.25079-.39809-.68866-.76824-.68466-1.13845a2.44845,2.44845,0,0,1,.39809-1.06684h-2.07s-.46174-3.5308.18708-4.18764a184.09917,184.09917,0,0,1,20.11418,3.44328,3.55877,3.55877,0,0,1,2.92973-2.62323,21.16365,21.16365,0,0,1-.11942,2.96161l2.78644.33838h-2.882a2.17455,2.17455,0,0,1-.08759.28663m79.33822,16.19325c-.33043.613-1.76741.63291-2.82623.95137a9.09517,9.09517,0,0,1,.08358-1.23l-17.38751.0438a3.81234,3.81234,0,0,1,.07957,1.07479c-.06366.39809-1.19415.37416-1.19415,0a2.48827,2.48827,0,0,1,.39809-1.07479l.36225-3.61044,20.568,3.58256a1.80325,1.80325,0,0,1-.09159.28262m-78.48215-41.4626c-.39809-.09949-.70853-.5732-1.05487-.8797.27467-.31445.48963-.79612.83992-.91553a26.58074,26.58074,0,0,1,2.70681-.73246c.13933,2.1217-.70853,2.95366-2.49192,2.52769m15.76734,77.85348c1.92266-1.433,2.81031-1.441,4.00057,0Zm35.89749-14.65676c-.08758-.31051-.195-.629-.28663-.93145.72451-.203,1.449-.39809,2.17346-.57721.09159.27466.17116.55729.25073.82794l-2.13762.68072m2.38836-33.89922c-.28269,5.71222-.79618,11.4364-1.36143,17.14066a55.00406,55.00406,0,0,1-1.25786,6.0944,25.44444,25.44444,0,0,1-5.93513,10.85524,18.84458,18.84458,0,0,1-11.99764,6.32126,41.654,41.654,0,0,1-14.40992-.77225,17.66231,17.66231,0,0,1-10.13074-5.971,2.75466,2.75466,0,0,1-.58912-1.00712c-1.40516-5.67244-2.90191-11.3289-4.10407-17.03717a29.85573,29.85573,0,0,1-.06372-6.05856l-.621-.02788c.43787-9.1555.5732-18.311,1.433-27.41869a55.72866,55.72866,0,0,1,4.18764-17.83729,26.2731,26.2731,0,0,1,4.17969-6.5163,22.128,22.128,0,0,1,5.33406-4.00852,24.67989,24.67989,0,0,1,13.6576-3.79752,9.98721,9.98721,0,0,1,5.00763,2.48791,45.83728,45.83728,0,0,1,14.70451,22.423,57.3497,57.3497,0,0,1,1.76346,14.00789,86.40448,86.40448,0,0,1,.203,11.12195m1.99032,29.05873c-.199.25876-.79618.203-1.19415.29459a3.18413,3.18413,0,0,1-.14334-1.1942c.3224-1.10261.91559-1.89083,2.51973-1.32553a15.11753,15.11753,0,0,1-1.19415,2.21324M824.773,81.94158l-.51349.39809c-.48167-.29853-1.32559-.56524-1.36143-.90757a4.88033,4.88033,0,0,1,.35424-2.85411c.5056-.79612,1.59223-.83991,2.63513-.08358-.66473,1.06684-2.84614,1.59224-1.11457,3.43533m-.96334-15.19414c-.33832.02788-.91158-.47765-1.023-.85187a4.19843,4.19843,0,0,1,.14335-1.59224c.45774.09949.91559.18313,1.36932.30255,1.441.39809,2.86206.82,4.299,1.23.03183.1035.07168.211.10751.33036-1.63208.199-3.25614.46175-4.89624.56525m19.74009-3.26015c-.2986.18313-.60509.37021-.90356.5613-.4219-.6648-.85182-1.32954-1.27384-1.99033a7.592,7.592,0,0,1,.89567-.50954c.46174.613.86384,1.28179,1.28173,1.94258m-3.093-7.22489a5.89308,5.89308,0,0,1,1.19414,1.59224c.08759.25474-.58517.77225-1.06282,1.34545-.79618-.59313-1.3415-.98721-1.87881-1.36932.58517-.51751,1.16232-1.039,1.74348-1.55245m-4.70515-4.63743c-.05576-.22291-.1035-.44583-.15125-.6648a5.991,5.991,0,0,1,1.93858-.90757c.44583-.03584,1.01909.50554,1.40916.91158.19109.215.0916.69663.12343,1.06283a7.563,7.563,0,0,1-1.433.08358,17.7372,17.7372,0,0,1-1.88682-.48562M837.88918,68.519V68.1209c1.648-.50554,3.292-1.05092,4.9599-1.449.15124-.03979.79618.832.7245,1.1942-.07957.47766-.65283,1.24195-.98325,1.22209-1.59224-.06372-3.13272-.35824-4.70115-.56524M839.366,87.43107c.58918-.77225.98326-1.29771,1.50465-1.9585.45774,1.77142.29459,2.01025-1.50465,1.9585m3.62641-11.66327c-.207.35029-1.16231.36225-1.77141.3662-.90357,0-1.79134-.15124-2.69491-.22692a4.46063,4.46063,0,0,1,.01992-.51751c1.52457-.75232,3.03323-1.51661,5.08733-2.53965a10.9175,10.9175,0,0,1-.64093,2.91782"/></g><g id="Path_3" data-name="Path 3"><path class="cls-1" d="M202.84085,119.96479a16.32045,16.32045,0,0,1-5.24251-2.82629,23.36986,23.36986,0,0,1-5.77594-9.75652,51.808,51.808,0,0,1-1.37333-14.05168c-.0836-3.491,0-6.99-.09156-10.47306-.11544-4.88428-.33437-9.76454-.4339-14.6408a1.7675,1.7675,0,0,1,.85583-1.2937c1.27778-.66479,1.04691-1.30165.4936-2.43214a11.2578,11.2578,0,0,1-1.3972-4.70114c.03584-5.85156.35825-11.69115.5732-17.51483.10748-3.16066.09157-6.3133.39806-9.44608a4.20741,4.20741,0,0,1,1.74752-2.6471,7.47975,7.47975,0,0,1,3.36365-.832,3.58248,3.58248,0,0,0,3.01734-2.13762,1.5644,1.5644,0,0,0-1.24194-2.4839,27.11985,27.11985,0,0,0-4.16773-.63691c-10.692-.36226-21.38006-.65284-32.07207-.96334V23.076h-3.04121c-1.29768,0-1.75945.70057-1.67585,1.95449.15525,2.38841.39806,2.70681,2.72276,3.37161a5.545,5.545,0,0,1,4.07567,6.69954q-.042.17256-.095.34221a6.61566,6.61566,0,0,0-.37419,3.9329,15.68385,15.68385,0,0,1,.53342,8.09268c-.29456,4.62151-.59313,9.255-.73641,13.88847-.11544,4.03641-.08759,8.07676,0,12.11711.09952,4.83253.3105,9.657.49758,14.48956a47.65541,47.65541,0,0,1,.24678,5.21069q-.54935,7.72647-1.39322,15.429a17.51505,17.51505,0,0,1-4.8126,9.23513,3.43135,3.43135,0,0,1-1.93062.92349,4.713,4.713,0,0,0-3.38752,3.01731c-.54137,1.13049-.21893,1.863,1.1345,1.93457,2.30083.13138,4.60958.28262,6.91438.35429,4.27521.13533,8.55442.2508,12.82963.31051,3.04519.03583,6.08242-.03979,9.12364-.05971,2.45207-.02788,4.90814-.09154,7.36817-.03584,4.26725.1035,8.53847.27467,12.80575.44984,1.64.07167,2.30083-.79612,2.50382-2.30082.215-1.59224-.77225-1.95449-1.95449-2.46M188.419,111.948c-.215.11942-.42594.24679-.63291.37021-.68466-.89962-1.40118-1.76741-2.04208-2.6909a.832.832,0,0,1,.15923-.79611c-5.31814-.19109-17.069-1.48479-17.069-1.48479l-1.027.32642c.32642-1.644,5.83163-1.59224,8.40713-.82l12.34-.68071a7.96094,7.96094,0,0,1-.07164,2.49987c-.04777.14328-.69662.19108-1.69974.17912.59312,1.00713,1.10264,2.04207,1.64,3.077M173.65873,79.91548l-2.874.97129c.17116-1.54449,1.12253-1.8669,2.874-.97129m-2.78644-6.03863c1.25391-1.01108,2.54363-1.06684,4.85241,0ZM180.57712,90.504a29.33309,29.33309,0,0,1-10.20241-.53737,18.1119,18.1119,0,0,1,10.20241.53737m-7.67072,7.92947c0,.2189.03584.43787.05175.65283l-3.71394,1.11858c-.09156-.08758-.19105-.18313-.29057-.26671.29057-.45779.51349-1.226.8837-1.31362a17.03215,17.03215,0,0,1,3.06909-.19108m8.029-22.98822,5.0196-.65283a3.7338,3.7338,0,0,1-5.0196.65283m5.3261-35.0297c.85983,1.4569.48166,2.05-1.42508,2.09777.53342-.77225.97527-1.441,1.42508-2.09777m-15.851,13.93226a14.68727,14.68727,0,0,1,2.18138.33838v.43387a14.64973,14.64973,0,0,1-2.058.35429c-.2866,0-.60108-.31845-.90359-.49357.25875-.2189.52145-.63692.79612-.63291M168.257,62.67144a196.60057,196.60057,0,0,1,20.27344,2.51973L165.18,65.05183a12.79905,12.79905,0,0,1,3.077-2.38841m-2.30884,51.76827c-.1035-.11546-.06369-.74837-.05971-.85983a1.32945,1.32945,0,0,1,.19507-.422v-.34634h.1632c.16321-.23087.37021-.48166.57718-.82.22292.3543.45379.64087.62894.88772l23.5256,1.31362Z"/></g><g id="Path_4" data-name="Path 4"><path class="cls-1" d="M300.096,89.41732a21.16467,21.16467,0,0,0-3.93288,1.49675,2.10587,2.10587,0,0,0-.95932,1.29771,21.8696,21.8696,0,0,1-5.62069,10.93882,47.66406,47.66406,0,0,1-7.39605,6.03864,57.72263,57.72263,0,0,1-5.9033,2.38841,45.41163,45.41163,0,0,1-16.40824,3.37956c-2.64713.2627-5.32609.18314-7.99315.29459-1.28176.05175-1.10264-.70458-1.019-1.56441.29456-3.07307.69265-6.1541.74838-9.23908.10748-5.39376-.08361-10.79949,0-16.19725a177.13317,177.13317,0,0,0-.27069-22.423,81.41536,81.41536,0,0,1-.48167-13.28344c.31846-5.99484,1.05089-11.98173,1.863-17.94079.47769-3.58256,1.96646-5.41368,5.342-5.7401,1.73953-.17117,2.10576-1.17428,2.02218-2.65907-.0836-1.644-1.1942-1.847-2.464-1.847q-13.61978,0-27.2117.02788c-2.75063,0-5.49328.211-8.23993.28663-1.12651.03979-2.25306,0-3.37957,0-2.0978.02788-4.1956,0-6.27749.17117a1.93467,1.93467,0,0,0-1.19421,1.37727c-.21894,2.12967,1.16633,3.31191,2.78644,4.41452a19.90321,19.90321,0,0,1,8.10461,12.2166,40.09675,40.09675,0,0,1,1.12253,9.37046c.02388,6.11031-.26273,12.22062-.58516,18.311-.11146,2.29682-.86779,4.54194-1.019,6.83475-.54535,8.52654-.91954,17.05709-1.45292,25.58758a80.80454,80.80454,0,0,1-1.05885,8.86091,5.03955,5.03955,0,0,1-3.55869,4.53,6.90238,6.90238,0,0,0-4.69318,4.77676c-1.05487,2.4879-.11544,3.901,2.57549,3.905q13.01271.02387,26.0215,0a21.73366,21.73366,0,0,0,2.671-.31846l-1.80722-.613a2.25181,2.25181,0,0,0-.02387-.39809c1.73953-.70458,3.487-1.40121,5.2266-2.11375.10748.17913.21894.36226.33437.54533l-3.72985,2.57148a62.61485,62.61485,0,0,0,6.369.629c14.63685.06372,29.27767.04379,43.91847.04379a12.18117,12.18117,0,0,0,2.19334-.1035,2.16549,2.16549,0,0,0,1.99033-2.257,142.8131,142.8131,0,0,1,4.15976-26.41558c.46971-1.74748.87973-3.495,1.21808-5.2704.29456-1.52457-.4936-2.34461-1.99032-1.96645M240.72864,40.109a1.75558,1.75558,0,0,1,1.22206-.11546,7.25278,7.25278,0,0,1,2.55955,6.11031,12.89324,12.89324,0,0,1-4.21152-5.21069c-.0796-.14329.203-.68867.42991-.79612m-12.6505,1.50471.53342-.08759c.617,1.67587,1.25391,3.34373,1.82314,5.02756.0796.23488-.16719.57721-.26671.8837-.35029-.12342-.79612-.13533-1.027-.37021a6.70746,6.70746,0,0,1-1.06283-5.45346M228.02639,77.348h-.56127a22.53047,22.53047,0,0,1,.56127-8.49471Zm.27467,7.43984V87.1165H227.696q-.05973-1.19418-.11544-2.38842c.23485.01993.48167.02788.7205.04775m.95534,39.078a33.93488,33.93488,0,0,1-4.95193.69663c-.02788-.195-.05176-.39809-.0796-.58912a3.76172,3.76172,0,0,1,4.77676-1.40121c.5732.35029,1.16235,1.031.24281,1.2937m4.04831-10.95473a3.34339,3.34339,0,0,1-.54138,1.09465,10.31878,10.31878,0,0,1-1.15837-.75232.87175.87175,0,0,1-.17116-.63692c.25079-2.24507.51747-4.48619.77622-6.73125a4.51244,4.51244,0,0,0,.65284-.03183c.12339,1.59223.27068,3.14074.39806,4.71311a14.896,14.896,0,0,1,.05572,2.34462m8.20411.99516c-1.28177.5732-2.55557,1.1942-3.82938,1.78733-.15127-.21095-.3105-.422-.45379-.63291.39806-.3662.79612-.9872,1.242-1.023a3.499,3.499,0,0,0,3.34774-3.39153c.06766-.96728.09952-1.95054.15923-3.11286a4.116,4.116,0,0,1-.46572,6.36906m5.17485-8.99624-11.26524-.76429v.49758a1.75992,1.75992,0,0,1-.27864-.51349l-8.75741-.59708,8.431-.434a19.93529,19.93529,0,0,1,.11146-9.24309,21.32839,21.32839,0,0,1,.51747,9.20725,53.63116,53.63116,0,0,1,11.32893-.62495c.54535.79612-.07165,2.50382-.07165,2.50382M232.88676,66.23007V61.73592l.45379-.06766v4.5499h-.45379m7.4239,27.72124c-.11941,1.82712-.24281,3.65824-.39806,5.81572a4.522,4.522,0,0,1-.17514-5.89535c.18708.02788.37419.0438.55331.07963m-.16719-15.87484a5.38184,5.38184,0,0,1,1.75548,7.16517c-.17117.02788-.33438.05175-.49759.08358-.39805-2.28491-.79611-4.57772-1.25789-7.2448M227.282,59.39131s-.56126-1.79924.07563-2.49987a187.3511,187.3511,0,0,1,20.30129,1.37332ZM247.862,37.46987c-.29058-.39809-.77225-.79612-.832-1.246-.03982-.32641.45776-.73641.70856-1.11063.39806.39809.76429.76429,1.3176,1.30166-.55331.48167-.86381.77224-1.19421,1.05487m31.1645,77.62261c-.06767-.15525-.13135-.31445-.207-.47371l4.58969-1.95449c-.83991,2.253-2.57947,2.42024-4.37871,2.4282m4.57378,8.10458c-.13135-.30254-.26671-.59707-.39806-.89962.72049-.33437,1.445-.67275,2.2013-.94742a4.57452,4.57452,0,0,1,.4339.74042c-.74838.37021-1.48877.74042-2.23711,1.10662m4.02841-5.44551c1.86694-1.32158,2.878-1.035,3.47511.74838-1.234-.27066-2.35257-.50955-3.47511-.74838m4.43444,5.2704c-.23485-.2508-.47371-.50955-.71652-.76429.42992-.44182.85583-.88771,1.28574-1.33354.28262.29853.55331.59312.832.89166-.46573.39809-.9275.79611-1.40118,1.1942"/></g><g id="Path_5" data-name="Path 5"><path class="cls-1" d="M412.70852,69.20753c-.5613-2.29287-.832-4.6534-1.453-6.92634a87.29512,87.29512,0,0,0-3.76969-12.20865,96.99651,96.99651,0,0,0-6.50038-10.9627,5.34156,5.34156,0,0,0-.99116-.89166c-.95136-.86779-1.83507-1.80719-2.8422-2.59936a83.37683,83.37683,0,0,0-7.63888-5.77593,35.27016,35.27016,0,0,0-5.93514-2.24908,16.06586,16.06586,0,0,0-9.052-1.35741,3.275,3.275,0,0,1-.836,0c-5.7401-.27066-11.47619-.60108-17.20438-.79612-7.70655-.27066-15.413-.43387-23.1236-.66875-7.37218-.2189-14.72838-.47765-22.10451-.69662a26.12031,26.12031,0,0,0-2.73074.2627,9.94957,9.94957,0,0,0,1.7077,2.10178,49.86419,49.86419,0,0,0,5.26244,3.00936,11.87036,11.87036,0,0,1,5.65652,5.11909,16.82576,16.82576,0,0,1,1.3972,7.37218c-.03183,5.82768-.47766,11.65932-.72845,17.483-.30255,6.96613-.55729,13.93227-.85188,20.90635-.14328,3.03724-.36225,6.07047-.49758,9.09975-.28262,6.46454-.54532,12.92513-.79612,19.21857.75233.15525,1.30961.25875,1.8669.3662-.2627.47766-.50553.96334-.79611,1.42508-.34233.5613-.97925,1.08275-1.031,1.66a7.56327,7.56327,0,0,1-4.84844,7.404,33.13611,33.13611,0,0,0-3.41935,1.81121c-1.39325.71254-1.36537,1.96645-1.19421,3.22036s1.2818,1.24991,2.24112,1.24991c3.88511-.02387,7.76225-.06372,11.64341-.09555,11.48815-.10745,22.98025.06767,34.44854-.39809a51.93534,51.93534,0,0,0,23.11164-5.38185c4.92807-2.69491,9.85212-5.40172,14.65677-8.30362a31.84535,31.84535,0,0,0,13.73322-18.75683,55.756,55.756,0,0,0,2.20127-10.01534,37.95652,37.95652,0,0,0,.39809-13.578m-6.34118-3.18453c.16321-.08357.70057.55334,1.32158,1.07079-.60108.49758-1.00312,1.06282-1.32954,1.027-.49758-.06372-.9275-.54533-1.39325-.84787a6.45341,6.45341,0,0,1,1.40121-1.24991M389.0515,51.99507c2.15754-.07562,4.323-.03583,6.48447-.03583.03183.3105.07167.629.09949.95137-2.2212.2627-4.44239.56524-6.68746.74837-.26671.02387-.58517-.50159-.87969-.79612.32641-.30254.64487-.86378.98319-.87969m2.62324,8.06874c0,.26671-.03979.54138-.05175.79612a13.23526,13.23526,0,0,1-1.73558-.33838c-.07168,0,0-.55334.03583-.85188l1.7515.39809m-1.26983,28.40189c.04379.15526.08358.30255.12342.4578-.28262.4578-.57721.89962-.92349,1.445.43788.3105.79612.56525,1.40121.96728-.87969.39809-1.59223.70459-2.32069,1.01108-.16721-.09554-.33036-.207-.50159-.30255a32.64209,32.64209,0,0,1,1.01108-3.29993c.08759-.22292.79612-.195,1.19421-.27868m-.0438-8.05282a10.52915,10.52915,0,0,1,1.66391-1.55245c.1592-.09555.74838.49758,1.56836,1.07479a15.83637,15.83637,0,0,1-2.32068,1.35741c-.17518.06372-.605-.5732-.91159-.87969m-8.53055-48.30914c-1.39719-.39809-3.16065,1.40121-4.49414-.79612,1.847-.91954,3.14469.07963,4.49414.79612M340.56725,55.18361a11.83361,11.83361,0,0,1,1.37333-1.03895c.17117.25474.54532.609.48562.76028a4.379,4.379,0,0,1-.99917,1.59223c-.29058.25475-.89962.15525-1.82712.27467a10.38906,10.38906,0,0,1,.96728-1.59224m1.07874,16.4998c.92349,1.76741.22693,3.23227-2.054,3.54278-1.5007.203-3.0014.39808-4.5021.51349a7.91745,7.91745,0,0,1-1.36136-.13138c.03183-.13533.06372-.25875.09154-.39809q3.893-1.74748,7.826-3.52686m-1.67587-10.64423c.50554-.37021,1.04691-.68867,1.59223-1.01108l.47371.79612c-.55334.29854-1.09465.609-1.6639.86779a3.81232,3.81232,0,0,1-.39809-.67275m-2.257-21.49547a27.2082,27.2082,0,0,1-10.84327,2.02616A19.97108,19.97108,0,0,1,337.717,39.51972m-10.41336,6.64767a16.92307,16.92307,0,0,1,3.14469-.50955c1.59223-.08358,3.21241-.02387,4.82056-.02387,0,.22693.03583.44984.05575.68071-2.58344.39809-5.17485.79612-7.7583,1.12655-.25474.03583-.55334-.25475-.836-.39809.18313-.30255.32241-.816.5732-.88371m3.94882,14.00789c-1.79923.66874-3.26811,1.226-4.83252,1.80324.39809-1.59223,1.64-2.03411,4.83252-1.80324m-4.96785,6.6238v2.269c-.30649-.04774-.85188-.06372-.86378-.13533-.06372-.7205-.03584-1.453-.03584-2.18536.29459.01992.59313.02788.89962.05175m1.66391,47.79163c-.06767-.2667-.12737-.54933-.199-.824,1.59224-.32642,3.18453-.66079,4.74494-.99516.04379.22692.09554.44984.14729.67275-1.5604.39809-3.12877.76429-4.69318,1.1464m-5.17486-17.483,2.10179-2.38841s18.15969.18313,18.28706,1.242-20.38885,1.12654-20.38885,1.12654m51.434,12.98885a18.68134,18.68134,0,0,1-9.35053,6.588c-3.13278.88771-6.36906,1.4012-9.55353,2.06594-1.36537.28663-2.74265.57721-4.1359.79612a8.26772,8.26772,0,0,1-3.15665.13533,3.292,3.292,0,0,1-2.11374-1.77537,16.71861,16.71861,0,0,1-.5613-4.83647c0-5.17485.11146-10.34971.22692-15.5245.15124-7.0338.39809-14.05569.52941-21.09744.1035-6.12622.04379-12.2604.12342-18.37466.02788-1.78733.39809-3.58255.39809-5.354.06767-4.84048.23488-9.69687-.02788-14.53335a5.62463,5.62463,0,0,1,6.36906-6.39293,7.90032,7.90032,0,0,0,1.019,0v-.01573c4.99573.2508,9.98745.44984,14.97121.76824a7.32035,7.32035,0,0,1,5.971,3.98065c2.03806,3.55868,3.905,7.21692,5.64455,10.92685a56.67542,56.67542,0,0,1,5.143,21.73035,98.15175,98.15175,0,0,1-1.5604,18.6175,58.297,58.297,0,0,1-3.39153,11.4364,38.06693,38.06693,0,0,1-6.54023,10.86715m7.34825-1.55245c.08759-2.09383.58517-2.38841,2.66308-1.648-.97129.59707-1.71566,1.06282-2.66308,1.648m3.71795-6.45659c-.17518-.15124-.35825-.28663-.53342-.42991.31846-.61305.48962-1.45691.99115-1.77142a5.90383,5.90383,0,0,1,2.2212-.42992c.08758.2508.17116.5135.25079.76824-.97925.621-1.94653,1.242-2.92972,1.86295m2.38841-5.354c-.13138,0-.53737-.56525-.47371-.72451.23087-.50954.58911-1.34945.94742-1.36932a31.75043,31.75043,0,0,1,4.02043.195c.02788.3662.06372.7245.09154,1.08275-1.53253.28663-3.05716.58517-4.58568.816m5.139,4.56581L396.336,99.751c-.5732,1.96245-1.32953,2.28491-3.5308,1.52858m14.99509-26.2285a13.21692,13.21692,0,0,1-1.81916-.03978c-.01993-.31445-.03979-.617-.04774-.93145.64487-.05576,1.28975-.11546,1.93456-.18313a7.65873,7.65873,0,0,1-.06766,1.15436m-18.13583-1.16238a2.78638,2.78638,0,0,1,.07167-2.49987c.72846-1.16632,20.30133,1.37333,20.30133,1.37333Z"/></g><g id="Path_6" data-name="Path 6"><path class="cls-1" d="M1060.4513,25.4961a2.89793,2.89793,0,0,0-2.89-2.90586h-.0079c-3.18447.01993-7.27664-.49758-10.477-.36225-5.84754.24284-9.2231-.46174-16.71876-.46174-9.88,0-19.40967-.66079-29.16619-1.24991-6.53621-.39809-13.13608.47766-19.70814.63291-5.17479.11146-10.3497.04774-15.50068-.06766a3.51106,3.51106,0,0,0-3.84532,4.27122c.39809,2.09778.85582,4.1916,1.1464,6.3133.42591,3.04125.76423,6.1063,1.05493,9.17537.35824,3.6781.625,7.36817.9394,11.04232a11.64072,11.64072,0,0,0,.207,1.26582c.39808.66079,4.62157.31445,4.68522-1.453,0-.3543.03985-.85582.07168-1.34946a24.56164,24.56164,0,0,1,.613-6.49242,21.161,21.161,0,0,1,11.34888-11.46823c4.22749-2.02215,9.05595-1.37728,13.53418-2.277a2.18944,2.18944,0,0,1,2.7865,2.18536c.45385,4.86035.98325,9.71674,1.21807,14.601.203,4.07619-.06365,8.17225.03985,12.27231.15525,6.73921.46174,13.47447.63291,20.22564a69.37292,69.37292,0,0,1-.15124,7.93341c-.39809,4.5937-1.28174,9.1555-1.50866,13.785-.12342,2.78645-.58116,5.57289-.9275,8.35939a15.395,15.395,0,0,1-.66073,3.62635,13.375,13.375,0,0,1-9.15543,7.5632,31.8702,31.8702,0,0,0-4.29905,1.48874,3.30005,3.30005,0,0,0-1.54449,3.93685,2.12576,2.12576,0,0,0,1.59223,1.26582c5.28631.04774,10.57262.06766,15.85893-.1035,4.42648-.13934,8.841-.68867,13.27944-.79612,2.7865-.05175,5.59681.5135,8.40311.59313,3.43132.09554,6.87065-.03183,10.302-.0438,1.63609,0,3.27205.09154,4.90012,0a4.77608,4.77608,0,0,0,1.56843-.70458c-.29459-.54137-.47766-1.25786-.93151-1.59223a6.76751,6.76751,0,0,0-2.30483-.93145,12.68237,12.68237,0,0,1-10.03921-11.46027c-.29459-2.12966,1.07473-4.5499-.88364-6.45659-.12342-.11941.01992-.75232.22291-.89962,1.15042-.87574.92349-1.61616-.06365-2.43214a1.373,1.373,0,0,1-.35824-.91159,27.58332,27.58332,0,0,0-.39809-4.96785c-.39809-1.41712,2.06989-1.86295.76423-3.58256a7.5624,7.5624,0,0,1-.74832-3.80152c-.08759-1.33749.203-2.6909.11942-4.0324-.35035-5.83959-.85182-11.65932-1.12649-17.51482-.09548-2.11375.42992-4.24736.48568-6.36906.15926-6.26556.203-12.53106.35824-18.78866.07569-3.4154.33832-6.81884.45385-10.23029.05175-1.57237.79618-2.16944,2.265-1.83507,2.85805.65283,5.70821,1.30566,8.53844,2.03412a13.22766,13.22766,0,0,1,6.85863,3.14869c2.21724,2.5317,3.65022,5.7958,6.04665,8.16428a16.98945,16.98945,0,0,1,6.16995,8.50267c.03985.203.14724.39809.07957.215a29.5193,29.5193,0,0,0,3.55875.60108c.50949.02387,1.47683-.39809,1.49274-.64882.22693-3.00936.2986-6.02272.39809-9.04a18.5395,18.5395,0,0,1,.36626-6.12222,24.37313,24.37313,0,0,0,1.00707-11.91011M968.666,38.67592c-.08759-.97925-.18307-1.95054-.27466-2.92578l.59306-.09554c.18307.96728.36225,1.93061.54532,2.89789l-.86384.12343m1.03889-12.91718c.87976-1.32158,1.23-1.33354,2.25309,0Zm49.2961,20.04263v-.79612l.625-.06766c.07957.7245.15525,1.46091.22291,2.18536-.27867,0-.56524.03584-.84793.04774V45.84911l-17.45116-.215-.07168-.90757Zm-.47765,12.62265c-.08759-.82794-.15526-1.66-.23883-2.50381l1.242-.08759v2.54761c-.33832,0-.67275.02387-1.00317.04379m.97523,3.7219c.08358.39809-.3105,1.234-.58115,1.27383a22.124,22.124,0,0,1-3.18447.05576c-.07168-.2667-.13132-.5294-.19109-.79611a25.96312,25.96312,0,0,1,2.93373-1.56837c.18708-.07963.9156.617,1.00707,1.035M1003.5321,51.79627c.39809-.215.84793-.66079,1.19415-.609,1.54449.25475,3.05716.65678,4.58574.99917v.32241c-1.55251,0-3.1049.03979-4.6613-.03583-.39809-.02788-.75232-.44183-1.13049-.67671m.87975,36.1045c.15526.92349.33043,1.69974.39809,2.4879a1.19426,1.19426,0,0,1-.43392.92349,1.07072,1.07072,0,0,1-1.00707-.17912,2.17346,2.17346,0,0,1,1.05882-3.23227m-2.50382,21.49547c.07957.62495.15926,1.234.24284,1.85894l-.71649.09154c-.08358-.625-.15926-1.234-.25073-1.855.25073-.02788.48567-.06766.7245-.09554m.56124,8.833a2.265,2.265,0,0,1-2.90191-.09153.75627.75627,0,0,1,.07957-.70854,2.38844,2.38844,0,0,1,3.03323.48167c-.14335.23087-.16315.28663-.211.31846m2.07791-14.33035a15.92385,15.92385,0,0,1-2.22126,1.05487c-.63291-2.41229.06766-3.33978,1.859-2.81827.33043.09153.79618.39809.824.65283a1.36937,1.36937,0,0,1-.46174,1.11063m.08758-25.703a5.21236,5.21236,0,0,1,0-.97925c.75233-.11547,1.51267-.13934,2.273-.19109,0,.39809.02782.79612.03584,1.17034Zm.60509-12.10515c-.24283.06766-.64882-.52145-.98714-.79612.44583-.39809.87575-.82,1.48473-1.36932.57326.54933.92348.89567,1.27784,1.24195a7.48345,7.48345,0,0,1-1.77543.9394m3.18447,4.43444h11.05429v1.00713h-8.24786Zm10.82725,4.59758c-.2149,1.8669-1.0389,1.96645-3.58256.21891,1.19414-.06767,2.38841-.14329,3.58256-.21891m-6.4049,22.1364c-.03584-.195-.06766-.39809-.09548-.60109a11.94162,11.94162,0,0,1,5.78389-.90757,1.10264,1.10264,0,0,1,.77225.70458,1.03083,1.03083,0,0,1-.66875.77225c-1.93056.06371-3.86123.03183-5.79179.03183m6.24564,8.96441h-5.30223V105.722h6.25754v.422c-.3105.02788-.6289.08759-.94742.09555M1051.881,45.53065l1.77542-19.87535-.50159,21.49547Zm3.40349,4.15977.05576-23.95555,1.19415-.07963Z"/></g><g id="Path_7" data-name="Path 7"><path class="cls-1" d="M945.968,39.12181c0-2.14157.05977-4.28319-.09548-6.41279-.19509-2.675-.56123-5.33011-.91158-7.98122a2.06016,2.06016,0,0,0-.68065-1.40121,13.42983,13.42983,0,0,0-4.03641-1.57237,74.14138,74.14138,0,0,0-8.90871-.59707c-4.84048-.03979-9.677.22291-14.50553.16321-4.21948-.05175-8.43494-.34634-12.65053-.59708-2.95767-.17517-5.91922-.617-8.88478-.64882-4.327-.04379-8.66588.29058-12.99287.23488-4.83246-.05971-9.66893-.32641-14.4935-.58911-2.30082-.11942-4.58573-.47766-6.88255-.57722-.57326-.01992-1.57231.44984-1.648.83992a43.93179,43.93179,0,0,0-.45385,4.58968c-.14335,1.52858.47766,2.22915,2.062,2.44016,2.12165.3065,4.2394.59708,6.3093,1.08275a5.82757,5.82757,0,0,1,4.18364,3.07307,27.3628,27.3628,0,0,1,2.35658,14.6408c-.25875,4.77676-.68065,9.52966-.96333,14.29452-.26276,4.49414-.37015,8.99624-.7086,13.48242-.48567,6.32527-.93539,12.66244-1.72756,18.95982s-1.83507,12.69427-3.085,18.97179a10.1148,10.1148,0,0,1-4.86829,7.02584,71.42691,71.42691,0,0,0-7.09357,4.51006,4.64912,4.64912,0,0,0-1.59223,3.081c-.07568,1.34544,1.37733,1.41311,2.43615,1.48478,1.59224.10745,3.15264.16321,4.729.1473,7.31648-.08759,14.63284-.2508,21.94531-.29058,8.95245-.05175,17.91291,0,26.87338-.03183,1.19414,0,2.38841-.14329,3.58255-.21095.06366-.207.10751-.418.16315-.629a22.39481,22.39481,0,0,0-6.01081-4.37874,4.99562,4.99562,0,0,1-2.62324-2.14557,64.58445,64.58445,0,0,1-3.07307-8.72158c-.69656-2.58344-.97925-5.27039-1.449-7.90954a16.85853,16.85853,0,0,1-.70057-4.12794c.55735-6.05455,1.31757-12.08128,1.99032-18.11991.21891-1.9704,1.26582-3.22037,2.95767-3.3079a15.24215,15.24215,0,0,1,9.9238,2.59937,5.32188,5.32188,0,0,1,1.33348,1.46091,23.88277,23.88277,0,0,1,3.49108,10.05512,3.71365,3.71365,0,0,0,1.2459,2.45207,5.143,5.143,0,0,0,3.25213.58516c.44182-.06371.87575-1.39325.97925-2.19331a35.83227,35.83227,0,0,0,.24685-4.72107q.09948-17.39942.13132-34.80278c0-4.02444-.18307-4.16378-4.20758-3.94481-1.33749.07167-2.14958.59313-2.273,1.9585-.12343,1.22208-.07568,2.47594-.28657,3.694a13.84094,13.84094,0,0,1-4.20356,8.08071,38.21483,38.21483,0,0,1-8.40312,7.46772,8.00277,8.00277,0,0,1-2.02215.43387,7.39555,7.39555,0,0,1-.36225-2.03412c.39809-4.14385.94742-8.26779,1.28173-12.41565.44583-5.48135.621-10.99057,1.1345-16.47192.28657-3.06511,1.09064-6.08644,1.51667-9.1555a4.37874,4.37874,0,0,1,5.29032-4.02444c2.95366.39809,5.92724.62495,8.89669.79612a15.18607,15.18607,0,0,1,14.7005,9.45,53.73793,53.73793,0,0,1,4.77683,14.67268c.15926,1.28179.23882,2.78644,2.17339,1.3972a.87577.87577,0,0,1,.625-.02387c2.04608.47371,2.261.34633,2.261-1.81121,0-4.09611-.02782-8.1842-.05175-12.2723M894.46228,95.47983c-.39809-.03584-.76034-.59313-1.1345-.93145a5.20744,5.20744,0,0,1,1.30166-1.027c.199-.07562.63692.4697,1.21807.93941-.6329.48962-1.035,1.05486-1.38523,1.019m.95933,4.06027c-.03183.25876.05576.88371-.207,1.22209s-.88365.39809-1.34151.59312a4.8766,4.8766,0,0,1-.22692-1.12654,5.39183,5.39183,0,0,1,.25875-1.40916,14.00929,14.00929,0,0,1,.58918-1.429,12.70281,12.70281,0,0,1,.91158,1.24991c.09949.1592,0,.43386,0,.89961m-1.93857-9.18338h-3.12081c2.01024-1.73157,5.13506-1.00311,5.2942-4.59369,1.29376,3.22037.39809,4.62151-2.17339,4.59369m-4.18364-24.282c0-.24283,0-.48962.02393-.73246,1.74348-.07963,3.48708-.195,5.23055-.199.25074,0,.50159.50159.75233.76028-.26665.24284-.54933.68466-.79618.66874-1.73959-.11145-3.47116-.3224-5.20674-.49758M876.46178,50.2078c-.39809-.55728.06767-2.49987.06767-2.49987l20.32513,1.37728S876.84,50.773,876.46178,50.20774m6.13412,36.9842c-.10751,1.62412-.94742,1.8231-1.95449,1.59223-.16715-.03978-.25875-.49357-.39809-.76028.79618-.28663,1.56843-.5732,2.34857-.85188m-2.72272-5.32609c-2.066,1.2937-2.886,1.22208-3.62241-.52941,1.07085.1592,2.13756.30649,3.62241.52941m-3.28008-9.43412a1.14016,1.14016,0,0,0,.34233-.03583,13.85115,13.85115,0,0,1,1.22209,1.91069c.14335.33437-.07957.836-.13132,1.26582-.47766-.17117-1.31757-.2627-1.36932-.52145a13.6374,13.6374,0,0,1-.06365-2.61929m17.272-27.94416-17.3716-.23087s-.55334-1.5007-.09548-1.863,17.46708,2.09382,17.46708,2.09382m-19.75588,68.11313c-.70057,0-1.56442.24284-1.86289-.06767s-.23883-1.1942-.16315-1.79923a16.4297,16.4297,0,0,1,.58116-2.78644,6.10652,6.10652,0,0,1,.8359-1.30962,7.264,7.264,0,0,1,1.09466.93546,9.55715,9.55715,0,0,1,.79617,1.37728c-2.70681.89567-2.70681.89567-1.28975,3.65824m2.56748-18.87224c-.39809.52145-.70058,1.09465-1.17435,1.843a2.51973,2.51973,0,0,1-.39809-2.96556,1.95472,1.95472,0,0,1,1.4529-.79612c.35824-.02387.76824.52145,1.15442.82-.33443.3662-.71648.71254-1.01909,1.11062m24.15053,26.531,2.886,3.22431-25.94988-3.16066Zm.54532-81.70275c-.39809-3.09294-3.33972-1.42508-4.77682-3.085a45.123,45.123,0,0,1,5.04748.68071c1.04691.25474.94742,1.40916-.29058,2.38841m18.70909,28.74824a12.95251,12.95251,0,0,1,1.91464.50553c-.06766.31445-.14723.621-.21891.93546l-2.12164-.3662c.14335-.37416.33042-1.0867.42591-1.07479M942.44494,30.086h-8.23183l-2.81031-1.00312h11.05429Z"/></g><g id="Path_8" data-name="Path 8"><path class="cls-1" d="M607.9473,55.39869c-.2627-5.27835-.5613-10.56065-.84787-15.835-.10745-2.11374-.25474-4.23144-.34634-6.34513a2.20131,2.20131,0,0,0-1.70369-2.38841c-1.35741-.37416-2.68294-.87174-4.02043-1.32158A24.33364,24.33364,0,0,1,588.16749,20.99c-1.69574-2.38841-3.46715-4.71705-5.06735-7.16517a18.55415,18.55415,0,0,1-4.05232-10.7C579.12745.02788,578.94432,0,575.732,0H495.79262C491.187,0,486.5615.07167,481.94.03584c-1.66792,0-2.38842.76429-2.35258,2.35257a8.80506,8.80506,0,0,1,0,1.52062c-.28663,1.59224-.14328,3.53081-1.03495,4.66932a100.12447,100.12447,0,0,1-8.93653,9.85213,31.75676,31.75676,0,0,1-5.764,3.69006,16.29173,16.29173,0,0,0-2.2252,1.19421,19.40235,19.40235,0,0,1-7.90554,3.64627,2.28889,2.28889,0,0,0-2.01024,2.78644,4.74834,4.74834,0,0,1-.05971,1.19421,91.32235,91.32235,0,0,0-1.3972,10.97466c-.08358,10.9189.07963,21.84976.31846,32.77267.08358,3.98065.61305,7.9613.97129,11.91807.32241,3.52686.54138,7.07358,1.07479,10.57657a34.09057,34.09057,0,0,0,4.37874,14.24277,86.85838,86.85838,0,0,0,12.10916,14.21094,207.865,207.865,0,0,0,18.26319,15.23392c6.30936,4.86435,13.156,9.048,19.78382,13.49839a70.72127,70.72127,0,0,1,6.06652,3.98065c4.95989,4.13189,9.80833,8.40318,14.63684,12.68631,1.88683,1.67186,1.94259,1.73157,3.67811-.12342,3.06511-3.288,5.99885-6.70738,9.29082-9.76053,4.319-3.98065,8.853-7.76626,13.45856-11.44035,3.288-2.6352,6.90242-4.85239,10.25416-7.408,3.71-2.82228,7.32839-5.764,10.91094-8.75741,3.14469-2.62323,6.30535-5.26639,9.24309-8.12049,2.41623-2.33666,4.323-5.2226,6.81884-7.46372a45.4041,45.4041,0,0,0,7.67466-9.99541,38.74363,38.74363,0,0,0,2.73074-4.24334,88.64968,88.64968,0,0,0,6.65169-33.23843c.22692-5.01559-.3543-10.083-.60109-15.12647M583.85265,22.49087c.48962.7205.99516,1.453,1.5007,2.1655-.21891.16321-.42992.31846-.64488.4697q-.7962-1.027-1.59223-2.054c.24284-.195.48962-.39809.74437-.58116M572.51179,33.42569c.39809.62495.73641,1.26582,1.09465,1.89879l-.824.39808c-.26671-.68071-.54138-1.36537-.77626-2.054a2.12917,2.12917,0,0,1,.50554-.24678M568.03751,8.19241a16.92579,16.92579,0,0,1-6.36906,2.20923,5.32607,5.32607,0,0,1,6.36906-2.20923m-6.62775,40.88126c.60108,1.19421,1.21808,2.38841,1.82311,3.60649-.23883.12342-.48167.24284-.72451.35824q-.92548-1.7913-1.843-3.58256l.74437-.39808m-7.34825-34.83862c1.25392,1.08275,2.51178,2.15754,3.75774,3.24424-.1592.19108-.32642.39808-.48167.5732-1.79924-.39809-2.68294-1.92661-3.72985-3.24424q.23487-.28663.45378-.5732m-5.80776,14.08751c-.11146.16722-.23883.34634-.35029.51751-2.76657-1.87486-5.53309-3.75373-8.51062-5.78389,2.01025-.91554,6.36906,1.9147,8.86091,5.26638M545.91308,4.92831c.02387.25474.03979.52145.05576.79612-2.19732.14328-4.37874.30254-6.588.44182,0-.22292-.03583-.45379-.05175-.6767l6.584-.54138m-9.1555,6.89446c-2.38841,2.54366-4.77676,2.14157-6.994-1.15041,2.49191.39809,4.55786.75633,6.994,1.15041M527.017,25.18973c.68072-.18313,1.36538-.29854,2.058-.42992.04774.33036.09949.6648.13934,1.00312l-2.12966.27066a4.17826,4.17826,0,0,1-.06767-.84392m-3.2084-4.71706c-.96333,1.99032-2.30082,2.22915-4.33889.87174l4.33889-.87174M516.68324,8.471a1.003,1.003,0,0,1,.13533.97524,1.0708,1.0708,0,0,1-1.01508.22292,29.60745,29.60745,0,0,1-2.49987-1.75946,2.43613,2.43613,0,0,1,3.37956.5613M496.99885,19.34212a5.43824,5.43824,0,0,1,1.19421-.45379,4.65628,4.65628,0,0,1,1.24195.13533c-.33438.30649-.613.77225-.99917.8797a4.29536,4.29536,0,0,1-1.47282-.12343c0-.14328.01992-.29058.03182-.43787m-10.5089-7.44379c.85983,1.69179.05971,2.257-.94742,2.62323-.15124.05576-.4697-.30254-.70853-.48561.55729-.70853,1.09866-1.42107,1.656-2.13762m-6.89446,16.16142.74042.2627c-.5175,1.437-1.039,2.886-1.55245,4.327-.24284-.09153-.48562-.17116-.72451-.2627q.76824-2.15757,1.53654-4.327m-2.1774,62.122c.23883,0,.48962.02387.72845.0438-.05175.84392-.10745,1.67982-.16722,2.51973h-.70458q.07963-1.27773.14329-2.55557m-13.0963-62.739c.03182-.34634.605-.64883.92348-.97129.18708.35429.57321.73641.53342,1.05487-.15124,1.31362-.44583,2.61527-.68071,3.909l-.816-.05576c0-1.30961-.05971-2.62724.03978-3.93685m-5.57288,1.95054c.28263,0,.79612.5732.76028.836a21.47063,21.47063,0,0,1-.65678,2.75461c-.27065-.03183-.53341-.07562-.79611-.10745a22.07527,22.07527,0,0,1-.18708-2.7506,1.15441,1.15441,0,0,1,.88771-.73246M454.5451,43.05471c-.25875-.03978-.5135-.07562-.76824-.11941.15525-.99115.31445-1.99032.46575-2.96161l.90363.1592c-.203.97523-.39809,1.94653-.60108,2.92176m3.58256,29.3294a1.40114,1.40114,0,0,1-1.039.37415c-.28262-.06766-.72049-.50553-.70057-.76823.05971-1.63208.23883-3.26016.39809-5.05143a4.13585,4.13585,0,0,1,1.3415,5.44551m.54137-8.59421a6.60351,6.60351,0,0,1-.832-.12342c.1592-.58116.32241-1.15436.49357-1.72362.22692.05576.44583.0995.67276.14329-.0995.56925-.17913,1.14246-.33438,1.70369m1.19421-23.21513.5732.14729q-.44781,2.38835-.89166,4.77676c-1.19421-1.847-.39809-3.3716.31846-4.92m12.5709,72.1174c-.66079-.29459-1.32953-.58911-1.96244-.93144a7.68527,7.68527,0,0,1,.39809-.9275l1.99032.89166c-.14329.32642-.29459.64488-.44182.96728m9.247,8.68179q-1.636-1.3016-3.28007-2.58739l.49357-.64087c1.77142.07167,2.27295,1.64,3.18453,2.71082l-.39809.5175m8.94054-21.4716c-.72845,1.16633-30.94155-1.09465-30.94155-1.09465l31.01323-1.40121a2.78634,2.78634,0,0,1-.07168,2.49586M490.578,42.74421q-1.19425,5.19472-2.38841,10.38949l-.621-.14729a20.95827,20.95827,0,0,1,2.99745-10.2422m-.99516-5.9033a10.12286,10.12286,0,0,1,1.031-6.87059l.629.13934c-.55334,2.24111-1.10261,4.49019-1.66,6.73125m3.09293,75.3377c-.43787-.4578-.89166-.91158-1.29771-1.40916a4.608,4.608,0,0,1,.55729-.55729c.48562.39809.94341.85187,1.40516,1.2977-.21891.21891-.43788.44984-.6648.66875m-1.99032-95.34845c1.15837-1.62011,2.18936-1.67982,3.58255-.22291l-3.58255.22291m9.37045,104.83431c.207-.203.39809-.39809.59708-.617,1.59223,1.59223,3.22431,3.21241,4.83647,4.8126-.12737.15124-.23883.29854-.37021.44583a15.49282,15.49282,0,0,1-5.0634-4.64144m1.52858,5.46143,5.7958,5.764-.58116.57721c-1.89879-1.9585-3.78561-3.913-5.68434-5.86747.1592-.1592.30649-.31846.4697-.47371m1.99033,18.76873-1.81515-.54137c.14328-.44182.29058-.88771.43386-1.32158.56926.36225,1.15041.71254,1.71967,1.06283-.11146.27065-.22693.53341-.33838.79611m3.51094-8.50661c-.45779-.68867-.91954-1.36932-1.38924-2.054.18313-.13138.3662-.27066.53737-.39809.51349.64487,1.031,1.28179,1.54048,1.92661-.23488.18313-.45379.35824-.68867.53341m9.19134-10.74773a17.51349,17.51349,0,0,1,2.08587-1.76741c.17116.14329.33437.29459.50158.44182a18.78865,18.78865,0,0,1-1.27383,2.265c-.18313.24679-.74042.23488-1.11859.34233-.07963-.44182-.37415-1.07874-.195-1.28179m.50554,17.21628c.07963-.22291.17116-.44583.25474-.68071l4.77676,1.83113c-.06766.19109-.13933.37416-.207.56925-1.59223-.56925-3.22036-1.14245-4.82056-1.71967m7.16518,11.63144a11.54331,11.54331,0,0,1-2.32069-1.10261c.03584-.17116.07168-.33437.11942-.50159a10.20228,10.20228,0,0,1,2.57549-.23883c.422.05971.73246.828,1.0867,1.26983-.48963.215-1.039.68466-1.46092.5732m0-16.32067c.06766-.27066.15124-.54533.21891-.79612l4.15181,1.22209c-.06767.25079-.14329.50954-.21891.76428-1.66791.63692-2.73074-.92348-4.15181-1.17428m2.97352,11.65531a7.505,7.505,0,0,1-.17912-.836c.52546-.1592,1.05487-.25875,1.59223-.37021.06372.27466.11942.5613.19109.82794l-1.59223.39809m-2.277-33.56484a129.65814,129.65814,0,0,1-13.3033-2.82629,21.98113,21.98113,0,0,1-15.95047-14.816,22.06878,22.06878,0,0,1,6.998-22.37918,14.72852,14.72852,0,0,1,6.6795-4.70114c.28262-.07562.5135-.39809.85188-.68466-1.56041-1.31362-2.96162-2.48-4.3429-3.67415a10.8156,10.8156,0,0,1-3.64227-8.26779A78.90446,78.90446,0,0,1,502.675,45.821a12.24854,12.24854,0,0,1,8.59821-9.95162,50.80047,50.80047,0,0,1,7.392-2.55557,56.38,56.38,0,0,1,15.44093-.97129c3.02132.31846,6.07046.23088,9.09974.48167a71.12406,71.12406,0,0,1,8.47084,1.0867,5.65251,5.65251,0,0,1,4.93232,6.29076l-.00031.00261c.03183,3.86518-.215,7.7543-.4697,11.63144-.1035,1.62012.195,3.37957-1.31362,4.7091-1.59223,1.42107-3.11687.07562-4.6534,0a48.48634,48.48634,0,0,1-5.342-.67275,1.92666,1.92666,0,0,1-1.8064-2.03983q.00546-.0891.01907-.17742c0-1.46091-.21095-2.90986-.32642-4.37874a4.82056,4.82056,0,0,0-5.03108-4.60043q-.14979.00673-.299.02272-6.10236.621-12.18478,1.4569a6.11822,6.11822,0,0,0-4.88822,6.174c.06371,1.00713-.03979,2.02216-.02387,3.02928a6.76688,6.76688,0,0,0,.195,2.15754,23.33994,23.33994,0,0,0,2.261,5.03157,5.26264,5.26264,0,0,0,3.06907,2.02215,25.41276,25.41276,0,0,0,5.85155.16722c2.878-.15124,4.12,1.01508,3.905,3.86123-.17912,2.30478-.29058,4.6056-.46576,6.91037-.23488,2.82228-1.17033,3.71-4.00451,3.98065a37.41235,37.41235,0,0,0-6.166.79612,26.85289,26.85289,0,0,0-4.932,2.32469c-.60109.30255-1.11458.76824-1.69975,1.09466a10.41331,10.41331,0,0,0-5.06339,11.719,11.75466,11.75466,0,0,0,6.91438,6.76709,12.94085,12.94085,0,0,0,7.237.81246c3.25219-.23087,6.50439-.46576,9.76053-.6648,2.14156-.13934,3.13278-.816,3.37161-2.91381.68466-6.14615,1.3415-12.29624,1.77536-18.45824.1592-2.253-.50159-4.56581-.48561-6.85467a44.55315,44.55315,0,0,1,.65678-6.85067c.2627-1.66,2.27294-2.85811,4.46231-2.96957,4.77677-.22692,9.55353-.58911,14.33035-.65678a35.172,35.172,0,0,1,6.67155.79612,1.92256,1.92256,0,0,1,1.10662,1.433c.203,2.679.28262,5.37784.3224,8.06874a2.15341,2.15341,0,0,1-2.253,2.38841c-2.30082.15124-4.60165.29854-6.90642.422-1.9107.09554-2.03807.39809-2.24112,2.31674-.50554,4.80859-1.27779,9.58542-1.75945,14.386-.49758,4.92005-.73641,9.864-1.15837,14.78414a4.53,4.53,0,0,1-2.98549,4.47422c-3.33182,1.031-6.65563,2.14157-10.05906,2.83819a52.73126,52.73126,0,0,1-17.39146,1.68778m11.74289-24.20234a6.25077,6.25077,0,0,1,.02788-1.68383c.24284-.84392.79612-1.56442-.06371-2.468-.19109-.195.50553-1.234,1.0907-1.76741.203,2.08186.89962,4.17173-.43787,5.971l-.617-.06372m.08759,5.81973c-.3662,2.08982-.79612,2.38841-2.9457,1.99033,1.01508-.68466,1.89879-1.27384,2.9457-1.99033m-.605-40.96083c1.19421-.50954,2.11375-1.851,4.00452-1.1942-1.19421,1.52457-2.7387.95136-4.00452,1.1942m1.31757-5.971c.68071-.617,1.21407-1.10261,1.75544-1.59223.28262.45779.90363,1.0907.79612,1.3415a8.40023,8.40023,0,0,1-1.5007,1.68778c-.30255-.39809-.58517-.79612-1.0429-1.441m-12.51515,44.9017c-.55728.86779-.79611,1.28179-1.0907,1.68777-.35825.52546-.95933,1.52457-1.07079,1.47282a17.66362,17.66362,0,0,1-2.81826-1.67982s.34233-.91158.613-.95932c1.2937-.23883,2.61133-.33438,4.37874-.52145m39.5318-46.33078c.18313-.11547.37021-.23488.55334-.34233.87575,1.38529,1.74749,2.78644,2.62324,4.15977-.215.12737-.42992.2667-.64488.39808-.84787-1.40916-1.68383-2.81826-2.5317-4.21947M569.144,78.47455c.03584.24679-.39809.67276-.3543.91159-2.86206-.03183-5.71622-.07563-8.57829-.11942-.04774-.23087-.08357-.46575-.12737-.69662,2.874.02788,6.19389-.12343,9.06-.09555m-25.38458,48.341-4.112-1.234c.07562-.25876.15525-.52941.215-.79612,1.38529.37416,2.75856.75633,4.13985,1.1345-.07963.29459-.1592.58911-.24284.88771m7.99713,6.86263c-.14329-.12342-.27868-.24678-.39809-.36225a17.029,17.029,0,0,1,5.541-5.764l.54138.54532q-2.84217,2.78642-5.68039,5.57288m6.76708-18.52195a29.39056,29.39056,0,0,1-3.30789,2.58345,1.0866,1.0866,0,0,1-1.031,0,1.19419,1.19419,0,0,1-.08358-1.06683,3.3795,3.3795,0,0,1,.79612-1.05092c.68071-.71649,1.40121-1.41712,2.10178-2.11375.23088-.23087.47766-.43787.824-.75232.37416.33838.8837.58516.95538.92749a1.82722,1.82722,0,0,1-.24284,1.47683m5.81572,22.37523-.54138-.51751c.46175-.54933.91554-1.09465,1.37333-1.62807l.68071.59708c-.50553.5175-1.00712,1.03895-1.51266,1.5485m-4.33093-54.26019c-.03979-.215-.07563-.42991-.11547-.64487,2.6471.04774,5.29427.10745,7.94137.15525a1.592,1.592,0,0,0,.836.65678,1.413,1.413,0,0,0,.39809-.10745.58524.58524,0,0,0,.05175-.26671c.11547.11146.08358.203-.05175.26671-.07562.14729-.22692.15525-.39809.10745a80.86815,80.86815,0,0,1-8.66186-.16722m8.75741,33.31405c.2667-.828.54532-1.656.816-2.48l.5175.16722c.37416,1.031.63291,2.02616-1.33354,2.31273m.008-75.27c.03183-.199.215-.49758.33438-.49758.30254,0,.73641.03584.88771.23488a22.185,22.185,0,0,1,1.31757,2.12565c-1.53654.215-2.72674-.82794-2.53966-1.86295m6.42081,78.74515-.58116-.46175,2.50783-2.73869c.16722.14328.34233.28663.50554.43787-.79612.9275-1.62012,1.83908-2.43215,2.76257M575.1349,89.68a24.0629,24.0629,0,0,1,1.5485-8.12049c1.74749,1.38924.89567,5.93513-1.5485,8.12049m2.70681,10.71591c2.2212.67275,1.99033,2.90191,2.81432,4.47823-2.55957-.49758-2.20923-2.76658-2.81432-4.47823m5.93119,13.72526-.79612-.4697a6.83541,6.83541,0,0,1,.39809-1.83112c.07963-.1592.90758.05175,1.39325.09554.13138.26671.25875.52145.39809.79612l-1.36537,1.42107m7.43583-59.31162c-.63291-.28663-1.2499-.58116-1.87091-.87575.13533-.29458.27467-.57721.39809-.86779a18.0149,18.0149,0,0,1,1.73157.93546c.05971.03978-.17912.52941-.2667.79612m.34233,19.17478c0-.211.43386-.39809.70458-.54933.0597-.02788.39809.28663.39809.422-.17117,1.41712-.37021,2.83424-.56525,4.2513-.25875-.02387-.50954-.05576-.76824-.08358.05971-1.34545.0995-2.69885.22693-4.04035m-1.50866,38.7516a23.9069,23.9069,0,0,1,4.28714-6.83081,9.31881,9.31881,0,0,1-4.28714,6.83081m2.9895-67.91779.66479-.14328c.215.91158.39809,1.82311.625,2.7387-1.36538-.59313-1.94653-1.40516-1.28975-2.59535m6.85066-3.0014a120.2655,120.2655,0,0,1-13.93226-.08358,4.00467,4.00467,0,0,1-2.11375,1.39325c-.27867.09153-.7205-.2627-1.09071-.39809a46.3751,46.3751,0,0,0-8.27179-1.42508c.08358.32642.18313.66079.24284.99516.05576.2627-.24284.68867-.39809,1.031-.195-.207-.51751-.36225-.56525-.63291-.17116-.97129-.25474-1.99032-.3662-2.96556.18708-.07963.39809-.15525.5732-.23883.16321.60108.34233,1.19421.50554,1.80325l11.08211-.3065c.25875-.06371.50554-.13138.79612-.207,0,.07167,13.90839-.54532,13.90839-.54532a1.89081,1.89081,0,0,1-.39809,1.59223m2.22521-2.35257c-.25876-.59708-.52941-1.19421-.77225-1.79529l-38.90685.68071s-.4697-1.59223.44984-2.15754,35.12919,1.36932,38.45306,1.46887c-.13533-.33437-.27466-.66079-.37416-.99917-.08357-.25875.39809-.68466.59313-1.031.29853.211.79612.36226.87174.63692a28.882,28.882,0,0,1,.56129,2.95761c-.29058.07963-.58516.15525-.87574.23883"/></g><g id="Path_9" data-name="Path 9"><path class="cls-1" d="M146.045,23.39031c-.47769-1.59224-2.12565-1.31362-3.42733-1.31757H119.713c-1.99032,0-2.98548.54532-2.97753,1.855,0,1.93456,1.55245,1.69974,2.78644,1.75149a9.0441,9.0441,0,0,1,7.0338,3.18453c.54535.66875.83593,1.246.15127,2.03412-.26273.30254-.42593,1.06683-.23485,1.30566,1.04294,1.28574.60506,2.60732.27865,3.95678-1.09469,4.5499-2.18138,9.10769-3.30793,13.6576-.53341,2.14156-1.08274,4.29114-1.75149,6.40088-.58915,1.88288-1.72759,3.4711-2.28488,5.4774-1.74354,6.26155-4.116,12.34-6.24166,18.49808a13.423,13.423,0,0,1-.50554,1.40516c-.625,1.24595-1.40117,1.3415-1.99032.10744-1.644-3.44723-3.3-6.89446-4.66929-10.4532-1.226-3.18453-1.96645-6.52431-3.089-9.72871-1.15439-3.288-2.38838-6.56409-3.8254-9.72074-1.41712-3.09293-1.59226-6.76709-4.21549-9.31075a2.61127,2.61127,0,0,1-.44186-1.06283c-1.027-3.26015-1.99032-6.53621-3.06909-9.78045-.42594-1.30961.03186-1.90274,1.30566-2.03412s2.52772-.2189,3.80153-.3224c1.93061-.1473,2.38838-.613,2.43615-2.59141V25.20552c0-3.089-.15923-3.23227-3.18453-3.0492-.49758.02788-.99914.05175-1.49672.05175l-22.06472-.13934c-2.07791,0-4.17171-.06371-6.24962,0-2.75063.11547-5.50922.2508-8.24789.54532-1.86693.195-1.09071,1.855-1.31362,2.92578s.58517,1.09466,1.30964,1.2818c1.40516.37415,2.90987.53341,3.292,2.48389.1035.50955,1.30169.91954,2.054,1.15837.66477.215,1.47683,0,2.12966.23087a3.451,3.451,0,0,1,1.91868,1.26983c1.59227,3.39153,3.12081,6.8308,4.50611,10.32183a7.13332,7.13332,0,0,1,.14729,6.7273c-1.99032,3.706-2.89392,7.96129-4.71705,11.78669-2.78645,5.88338-5.971,11.5837-9.02412,17.34767a14.36109,14.36109,0,0,1-1.3375,1.67982c-.56524-1.09466-1.05487-1.8669-1.38924-2.69886-1.35741-3.37956-2.70286-6.76708-3.98064-10.19044a2.3884,2.3884,0,0,1,.09552-1.91471c.97924-1.40916.94741-1.69573-.46176-2.6471A6.63172,6.63172,0,0,1,48.551,60.24318c-1.78732-3.54277-3.4154-7.16517-5.02358-10.80744-2.062-4.62947-4.02444-9.3147-6.08243-13.95219-1.34546-3.02132-1.226-4.08809,1.433-6.08643a38.21876,38.21876,0,0,1,5.67242-3.37957,1.62013,1.62013,0,0,0,1.08274-1.93062c-.2269-1.54449-1.30167-1.71966-2.55957-1.71966q-20.33713,0-40.67823.01992c-2.38839,0-3.081,1.17428-1.66789,3.12877A22.93336,22.93336,0,0,0,4.7878,29.31749a3.81781,3.81781,0,0,0,1.62411.39809c.34632.07167.69661.11546,1.04293.16721A3.634,3.634,0,0,1,7.208,30.9297c-.56126.94342-.42194,1.31363.74836,1.51662a3.18449,3.18449,0,0,1,2.12169,1.2499c1.23,2.34061,2.22519,4.80859,3.292,7.23679.32642.74437.51351,1.56041.88371,2.277,2.22917,4.311,4.53,8.59025,6.73924,12.92118A4.10008,4.10008,0,0,1,21.415,60.1118c-.14728.27467.24282.93546.53738,1.29771a16.37446,16.37446,0,0,1,2.19333,2.48,27.67738,27.67738,0,0,1,1.92664,4.92005,26.08516,26.08516,0,0,1,2.22519,10.25015c-.0398.2627.39806.58517.613.87174a11.23422,11.23422,0,0,1,1.78333,2.253c.98323,2.277,1.77935,4.6534,2.65907,6.97014a1.12249,1.12249,0,0,1-.73642,1.68778,24.422,24.422,0,0,0-2.38838,1.32158c.73642.3224,1.06682.59707,1.40119.60108,3.07306,0,4.319,1.99032,5.01163,4.59369.12739.47766.31049.94341.42194,1.42508a40.898,40.898,0,0,0,1.07876,4.77677c1.30565,3.68211,2.78645,7.29254,4.1757,10.93882.69263,1.8231,1.19419,3.7259,1.99032,5.48134.79613,1.68778,1.92266,3.2044,2.81034,4.84844.19505.3543,0,.91553,0,1.38924v1.3375a4.23565,4.23565,0,0,0,1.48081-.36226,4.12755,4.12755,0,0,0,.97127-1.31757c1.59227-2.72673,3.18453-5.44551,4.729-8.18421,1.027-1.81515,2.07791-3.61444,2.99742-5.48535s1.73157-3.901,2.57151-5.86747a10.89166,10.89166,0,0,0,.33437-1.2499c.25478-.816.47371-1.64.79612-2.44017s.816-1.55646,1.09468-2.38841a56.04077,56.04077,0,0,1,2.97753-8.91266c2.12168-4.02839,3.61442-8.39121,5.342-12.6266,1.83508-4.49414,3.60646-9.01617,5.47737-13.49439a40.29855,40.29855,0,0,1,1.99032-3.71795l.69265.05175a16.9104,16.9104,0,0,1,1.17031,2.2809c.85184,2.44812,1.59226,4.944,2.41228,7.408,1.75945,5.17485,3.503,10.3497,5.358,15.47675.79612,2.17346,1.89478,4.22744,2.72276,6.36906,1.07476,2.78644,2.03809,5.57288,3.0014,8.41508a5.4336,5.4336,0,0,1,.26671,4.936c-.1234.215.398.91553.74038,1.26983.621.64086,1.6838,1.06683,1.95449,1.8112,1.81916,4.90814,3.4592,9.87994,5.19475,14.82392a4.60968,4.60968,0,0,0,.99516,1.67588c1.27778,1.30165,2.08189,1.15837,2.82625-.49358,1.42906-3.18453,2.878-6.33717,4.17572-9.55352a35.78286,35.78286,0,0,0,3.07705-7.806,18.47,18.47,0,0,1,4.23542-10.11081,2.12494,2.12494,0,0,0,.33835-.75233c.76429-2.13762,1.50866-4.27122,2.28886-6.40088,1.91072-5.17486,4.0324-10.30592,5.70028-15.5683C128.586,64.14827,131.9098,52.879,135.3252,41.64166c.11146-.37021.25875-.72845.37419-1.09866a43.13031,43.13031,0,0,1,4.43443-10.10286,13.136,13.136,0,0,1,3.8055-4.2394c1.04294-.68466,2.54364-1.30961,2.08587-2.82227M37.25389,41.77292a14.23163,14.23163,0,0,1,.99516,1.40121c.02787.05971-.52146.56524-.59311.5175a5.01556,5.01556,0,0,1-1.14244-.97129,7.562,7.562,0,0,1,.74041-.94742m-12.2206,13.57a10.57723,10.57723,0,0,1,2.07789-2.38841,91.823,91.823,0,0,1,13.70537,2.51973Zm9.22714,12.81769c1.47681-.11146,2.9616-.2189,4.43843-.33437a7.00874,7.00874,0,0,0,.0597.70458l-4.4225.24284c-.02388-.203-.05175-.39809-.07563-.61305m5.89931,4.932q-2.5874-.1353-5.17484-.29058c0-.22693.02787-.4578.0398-.68466,1.76343-.79612,3.43132.15124,5.139.39809v.56129m5.79185-9.27491-5.30621-.60509c.03583-.27868.07564-.55334.11146-.832,1.76343.215,3.62239-.29458,5.27834.72451l-.08359.73641m13.70935,33.31c-.22292-.09555-.44981-.18313-.66875-.26671a2.78645,2.78645,0,0,1,1.89876-3.1049c-.39806,1.12654-.816,2.24112-1.23,3.37161M64.378,85.162l-.9036-.39809c.51747-1.05487,1.035-2.09777,1.55643-3.14869l.52546.22291c-.39806,1.11458-.79612,2.21725-1.19421,3.32387m9.10773-30.1096-.73243-.44983c.42594-1.05487.85983-2.10974,1.2937-3.16066q.24677,0,.48962-.02387c.23087.422.76031.99917.63692,1.246a18.40576,18.40576,0,0,1-1.68781,2.38841m22.19209-.77224-1.34544,1.226L92.11915,53.914c.68068-.31846,1.37333-.91159,2.03014-.87575.52546.02387,1.0071.816,1.51263,1.26187m-5.85155-9.73271c.05175-.43386.06368-.87174.07562-1.31362s0-.824,0-1.242l.33437-.06371c.62495,1.46091,1.25789,2.92972,1.91073,4.45034-2.28886.43387-2.57947.1592-2.3247-1.83112M81.21617,55.42256c.05175-.30649.09952-.621.14729-.93545l5.70426,1.19421-.07164.49758-5.77991-.76429m11.70709,9.64907a31.65046,31.65046,0,0,1-9.52171-1.53654,19.66423,19.66423,0,0,1,9.52171,1.53654m-6.50837,6.25359,15.78325.1473A52.03151,52.03151,0,0,0,96.263,73.45489a46.096,46.096,0,0,1-9.84812-2.12966m4.83647,14.70852c-.15923.04774-.4697-.42591-.71254-.66875.27865-.2627.52546-.64882.85983-.74837.24679-.07562.60506.2189,1.242.48561a5.9712,5.9712,0,0,1-1.38924.93145M96.263,89.00721l-3.41541-.79612c.05175-.21095.09953-.39809.13934-.621,1.15041.23488,2.29284.45779,3.43132.68866-.05573.24284-.10748.48963-.15525.73247m7.189,10.8075c-.71651-.13138-1.437-.27467-2.16546-.39809.01989-.22692.03981-.45379.06368-.68071.73641.09153,1.48081.19109,2.22518.29058-.03584.27065-.0796.54137-.1234.79611M100.39493,79.991a.526.526,0,0,0-.02388-.19108c1.37333-.11547,2.74268-.22693,4.112-.34634,0,.18313.02387.36225.03186.53736Zm18.33089-2.71082c-.19106-.09153-.39806-.18707-.58119-.27466-.4936-1.14641.16718-1.80719,1.09468-2.34061.207.1035.39806.203.617.29853-.37419.79612-.75236,1.5445-1.13049,2.31674m10.0153-23.08776a6.60066,6.60066,0,0,1-.68864-.02387,7.1908,7.1908,0,0,1-.03583-1.40121c0-.07562.617-.06766.95534-.09949-.07562.50955-.15525,1.01508-.23087,1.52457m2.58743-23.7406c-.11544-.39809-.23485-.79611-.35427-1.1942l1.88682-.32642c.07563.2627.15128.52546.22292.79612l-1.75547.7205"/></g></g></svg>